<svg xmlns="http://www.w3.org/2000/svg" width="18" height="18" viewBox="-1 -1 18 18"><circle cx="8" cy="8" r="7" style="fill:#8cc63f"/><path d="M12.084,7.416c0-0.318-0.266-0.582-0.584-0.582H9.166V4.5c0-0.318-0.264-0.584-0.582-0.584H7.416
	c-0.318,0-0.582,0.266-0.582,0.584v2.334H4.5c-0.318,0-0.584,0.264-0.584,0.582v1.168c0,0.318,0.266,0.582,0.584,0.582h2.334V11.5
	c0,0.318,0.264,0.584,0.582,0.584h1.168c0.318,0,0.582-0.266,0.582-0.584V9.166H11.5c0.318,0,0.584-0.264,0.584-0.582V7.416z" style="fill:#fff"/></svg>