<?xml version="1.0" encoding="utf-8"?>
<!-- Generator: Adobe Illustrator 19.2.1, SVG Export Plug-In . SVG Version: 6.00 Build 0)  -->
<svg version="1.1" id="Layer_1" xmlns="http://www.w3.org/2000/svg" xmlns:xlink="http://www.w3.org/1999/xlink" x="0px" y="0px"
	 viewBox="0 0 5.831 5.60673" style="enable-background:new 0 0 5.831 5.60673;" xml:space="preserve">
<style type="text/css">
	.st0{fill:#767472;}
</style>
<g>
	<path class="st0" d="M0.44854,5.60673h4.93392c0.24732,0,0.44854-0.20121,0.44854-0.44854V4.03673
		c0-0.13458-0.06083-0.25411-0.155-0.3364c0.09417-0.0823,0.155-0.20182,0.155-0.3364V2.24264
		c0-0.13458-0.06083-0.25411-0.155-0.3364c0.09417-0.0823,0.155-0.20182,0.155-0.3364V0.44854C5.831,0.20121,5.62978,0,5.38246,0
		H0.44854C0.20121,0,0,0.20121,0,0.44854v1.12129c0,0.13458,0.06083,0.25411,0.155,0.3364C0.06083,1.98853,0,2.10805,0,2.24264
		v1.12129c0,0.13458,0.06083,0.25411,0.155,0.3364C0.06083,3.78262,0,3.90215,0,4.03673v1.12146
		C0,5.40551,0.20121,5.60673,0.44854,5.60673z M0.22427,0.44854c0-0.12368,0.10058-0.22427,0.22427-0.22427h4.93392
		c0.12368,0,0.22427,0.10058,0.22427,0.22427v1.12129c0,0.12368-0.10058,0.22427-0.22427,0.22427H0.44854
		c-0.12368,0-0.22427-0.10058-0.22427-0.22427V0.44854z M0.22427,2.24264c0-0.12368,0.10058-0.22427,0.22427-0.22427h4.93392
		c0.12368,0,0.22427,0.10058,0.22427,0.22427v1.12129c0,0.1237-0.10058,0.22427-0.22427,0.22427H0.44854
		c-0.12368,0-0.22427-0.10057-0.22427-0.22427V2.24264z M0.22427,4.03673c0-0.12368,0.10058-0.22427,0.22427-0.22427h4.93392
		c0.12368,0,0.22427,0.10058,0.22427,0.22427v1.12146c0,0.12368-0.10058,0.22427-0.22427,0.22427H0.44854
		c-0.12368,0-0.22427-0.10058-0.22427-0.22427V4.03673z"/>
	<path class="st0" d="M0.72887,1.06528h0.50461c0.06192,0,0.11213-0.05021,0.11213-0.11213S1.2954,0.84101,1.23348,0.84101H0.72887
		c-0.06192,0-0.11213,0.05021-0.11213,0.11213S0.66695,1.06528,0.72887,1.06528z"/>
	<path class="st0" d="M3.4201,1.06528h0.22427c0.06192,0,0.11213-0.05021,0.11213-0.11213S3.70629,0.84101,3.64437,0.84101H3.4201
		c-0.06192,0-0.11213,0.05021-0.11213,0.11213S3.35818,1.06528,3.4201,1.06528z"/>
	<path class="st0" d="M4.09291,1.06528h0.22427c0.06192,0,0.11213-0.05021,0.11213-0.11213S4.3791,0.84101,4.31718,0.84101H4.09291
		c-0.06192,0-0.11213,0.05021-0.11213,0.11213S4.03099,1.06528,4.09291,1.06528z"/>
	<path class="st0" d="M4.76572,1.06528h0.22427c0.06192,0,0.11213-0.05021,0.11213-0.11213S5.05191,0.84101,4.98999,0.84101H4.76572
		c-0.06192,0-0.11213,0.05021-0.11213,0.11213S4.7038,1.06528,4.76572,1.06528z"/>
	<path class="st0" d="M0.72887,4.65358h0.50461c0.06192,0,0.11213-0.05021,0.11213-0.11213
		c0-0.06192-0.05021-0.11213-0.11213-0.11213H0.72887c-0.06192,0-0.11213,0.05021-0.11213,0.11213
		C0.61674,4.60337,0.66695,4.65358,0.72887,4.65358z"/>
	<path class="st0" d="M0.72887,2.85943h0.50461c0.06192,0,0.11213-0.05021,0.11213-0.11213S1.2954,2.63516,1.23348,2.63516H0.72887
		c-0.06192,0-0.11213,0.05021-0.11213,0.11213S0.66695,2.85943,0.72887,2.85943z"/>
	<path class="st0" d="M3.4201,2.85943h0.22427c0.06192,0,0.11213-0.05021,0.11213-0.11213S3.70629,2.63516,3.64437,2.63516H3.4201
		c-0.06192,0-0.11213,0.05021-0.11213,0.11213S3.35818,2.85943,3.4201,2.85943z"/>
	<path class="st0" d="M4.09291,2.85943h0.22427c0.06192,0,0.11213-0.05021,0.11213-0.11213S4.3791,2.63516,4.31718,2.63516H4.09291
		c-0.06192,0-0.11213,0.05021-0.11213,0.11213S4.03099,2.85943,4.09291,2.85943z"/>
	<path class="st0" d="M4.76572,2.85943h0.22427c0.06192,0,0.11213-0.05021,0.11213-0.11213S5.05191,2.63516,4.98999,2.63516H4.76572
		c-0.06192,0-0.11213,0.05021-0.11213,0.11213S4.7038,2.85943,4.76572,2.85943z"/>
	<path class="st0" d="M3.4201,4.65358h0.22427c0.06192,0,0.11213-0.05021,0.11213-0.11213
		c0-0.06192-0.05021-0.11213-0.11213-0.11213H3.4201c-0.06192,0-0.11213,0.05021-0.11213,0.11213
		C3.30797,4.60337,3.35818,4.65358,3.4201,4.65358z"/>
	<path class="st0" d="M4.09291,4.65358h0.22427c0.06192,0,0.11213-0.05021,0.11213-0.11213
		c0-0.06192-0.05021-0.11213-0.11213-0.11213H4.09291c-0.06192,0-0.11213,0.05021-0.11213,0.11213
		C3.98078,4.60337,4.03099,4.65358,4.09291,4.65358z"/>
	<path class="st0" d="M4.76572,4.65358h0.22427c0.06192,0,0.11213-0.05021,0.11213-0.11213
		c0-0.06192-0.05021-0.11213-0.11213-0.11213H4.76572c-0.06192,0-0.11213,0.05021-0.11213,0.11213
		C4.65358,4.60337,4.7038,4.65358,4.76572,4.65358z"/>
</g>
</svg>
