<?xml version="1.0" encoding="utf-8"?>
<!-- Generator: Adobe Illustrator 19.2.1, SVG Export Plug-In . SVG Version: 6.00 Build 0)  -->
<svg version="1.1" id="Isolation_Mode" xmlns="http://www.w3.org/2000/svg" xmlns:xlink="http://www.w3.org/1999/xlink" x="0px"
	 y="0px" viewBox="0 0 105.15132 88.10093" style="enable-background:new 0 0 105.15132 88.10093;" xml:space="preserve">
<style type="text/css">
	.st0{fill:none;stroke:#767471;stroke-width:3;stroke-miterlimit:10;}
	.st1{fill:none;stroke:#767471;stroke-width:3;stroke-linecap:round;stroke-miterlimit:10;}
</style>
<g>
	<g>
		<g>
			<path class="st0" d="M94.30132,32.3228c0,0,2.10374,0,4.675,0s4.675,2.25,4.675,5v33.5c0,2.75,0,5.792,0,6.76
				c0,0.96799,0,3.92225,0,6.56499c0,2.64275-1.62231,3.24596-3.60513,1.34047l-2.78973-2.68093
				c-1.98283-1.90549-5.85513-3.46454-8.60513-3.46454h-40.91c-2.75,0-5-1.39725-5-3.105s0-3.105,0-3.105"/>
		</g>
	</g>
	<g>
		<g>
			<path class="st0" d="M6.5,1.5c-2.75,0-5,2.25-5,5v56.282c0,2.75,0,6.20427,0,7.67615c0,1.47188,0,4.92615,0,7.67615v4.6449
				c0,2.75,1.62255,3.44121,3.60567,1.53602l8.03257-7.71693c1.98312-1.90519,5.85567-3.46398,8.60567-3.46398h67.5528
				c2.75,0,5-2.25,5-5V6.5c0-2.75-2.25-5-5-5H6.5z"/>
		</g>
		<g>
			<line class="st1" x1="23.184" y1="24.1217" x2="72.6127" y2="24.1217"/>
			<line class="st1" x1="23.184" y1="38.5897" x2="72.6127" y2="38.5897"/>
			<line class="st1" x1="23.184" y1="53.0577" x2="72.6127" y2="53.0577"/>
		</g>
	</g>
</g>
</svg>
