<?xml version="1.0" encoding="utf-8"?>
<!-- Generator: Adobe Illustrator 18.1.0, SVG Export Plug-In . SVG Version: 6.00 Build 0)  -->
<svg version="1.1" id="Layer_1" xmlns="http://www.w3.org/2000/svg" xmlns:xlink="http://www.w3.org/1999/xlink" x="0px" y="0px"
	 viewBox="0 0 30.4517 28.8086" enable-background="new 0 0 30.4517 28.8086" xml:space="preserve">
<path stroke="#79c5e1" stroke-width="1" stroke-miterlimit="10" d="M29.4517,3.8662h-4.5088V3.3545
	c0-1.5743-1.2808-2.8545-2.8545-2.8545s-2.854,1.2802-2.854,2.8545v0.5117h-8.0166V3.3545C11.2178,1.7802,9.937,0.5,8.3633,0.5
	s-2.854,1.2802-2.854,2.8545v0.5117H1c-0.2763,0-0.5,0.2236-0.5,0.5v23.4424c0,0.2763,0.2237,0.5,0.5,0.5h28.4517
	c0.2763,0,0.5-0.2237,0.5-0.5V4.3662C29.9517,4.0898,29.728,3.8662,29.4517,3.8662z M20.2344,3.3545
	c0-1.0225,0.8315-1.8545,1.854-1.8545c1.0225,0,1.8545,0.832,1.8545,1.8545v2.0029c0,1.0224-0.832,1.8545-1.8545,1.8545
	c-1.0225,0-1.854-0.8321-1.854-1.8545V3.3545z M6.5093,3.3545C6.5093,2.332,7.3408,1.5,8.3633,1.5s1.8545,0.832,1.8545,1.8545
	v2.0029c0,1.0224-0.832,1.8545-1.8545,1.8545s-1.854-0.8321-1.854-1.8545V3.3545z M28.9517,27.3086H1.5V12.1191h27.4517V27.3086z
	 M28.9517,11.1191H1.5V4.8662h4.0093v0.4912c0,1.5742,1.2803,2.8545,2.854,2.8545s2.8545-1.2803,2.8545-2.8545V4.8662h8.0166v0.4912
	c0,1.5742,1.2803,2.8545,2.854,2.8545s2.8545-1.2803,2.8545-2.8545V4.8662h4.0088V11.1191z"/>
</svg>
