<?xml version="1.0" encoding="utf-8"?>
<!-- Generator: Adobe Illustrator 19.2.1, SVG Export Plug-In . SVG Version: 6.00 Build 0)  -->
<svg version="1.1" id="_x2014_ÎÓÈ_x5F_1" xmlns="http://www.w3.org/2000/svg" xmlns:xlink="http://www.w3.org/1999/xlink"
	 x="0px" y="0px" viewBox="0 0 337.70493 337.70493" style="enable-background:new 0 0 337.70493 337.70493;" xml:space="preserve">
<style type="text/css">
	.st0{fill:#8F9090;}
</style>
<path class="st0" d="M243.8634,117.33477c0.00163-0.00962,0.00867-0.01068,0.01082-0.02032
	c5.14946-8.03967,1.77225-19.48399-7.49544-25.40848l-38.14503-24.4007c-9.27255-5.94227-21.07401-4.2039-26.23276,3.8373
	c-0.00439,0.00995-0.00615,0.01958-0.0107,0.02961l-0.00705-0.00824L92.94788,194.86256
	c-1.04588,1.61098-1.57331,3.51366-1.52472,5.50055l1.79475,73.36876l61.03704-26.40128
	c5.92305-2.56198,10.80829-6.71376,14.11836-11.99876l75.4966-117.99809L243.8634,117.33477z M117.67554,252.62517
	l-15.56187-10.46213l-0.94579-38.65645l52.49075,33.56941L117.67554,252.62517z M157.79745,231.22012l-53.00282-34.07802
	l80.05669-123.8885l52.35722,33.45419L157.79745,231.22012z"/>
</svg>
