<?xml version="1.0" encoding="utf-8"?>
<!-- Generator: Adobe Illustrator 19.2.1, SVG Export Plug-In . SVG Version: 6.00 Build 0)  -->
<svg version="1.1" id="Isolation_Mode" xmlns="http://www.w3.org/2000/svg" xmlns:xlink="http://www.w3.org/1999/xlink" x="0px"
	 y="0px" viewBox="0 0 125.38179 94.62315" style="enable-background:new 0 0 125.38179 94.62315;" xml:space="preserve">
<style type="text/css">
	.st0{fill:#F7BCB8;}
	.st1{fill:#B5DCEA;}
	.st2{fill:none;stroke:#767471;stroke-width:3;stroke-miterlimit:10;}
	.st3{fill:none;stroke:#767471;stroke-width:3;stroke-linecap:round;stroke-miterlimit:10;}
</style>
<polygon class="st0" points="95.63326,27.8093 108.75826,33.0593 115.88326,39.0593 119.75826,44.6843 121.50826,49.6843 
	121.88326,56.5593 120.88326,65.4343 116.63326,73.9343 117.88326,82.4343 123.50826,91.5593 104.88326,83.6843 89.50826,86.9343 
	68.88326,82.3093 66.50826,79.6843 76.38326,75.3093 82.25826,71.0593 88.25826,67.5593 93.13326,59.1843 94.88326,55.4343 
	96.88326,40.9343 "/>
<path class="st1" d="M41.63326,1.8093c0,0-18.25,5.125-25.25,10.875s-12.5,19.25-12.5,19.25l-1,10.625l2.75,13.625l6.55286,9.96572
	L2.63325,88.0593l23.5-10.25c0,0,17.375,5.625,22.625,5.125s26.75-4.125,32.25-10.75s16.25-13.5,16-26.375s-7.125-30.5-20.25-37.625
	S44.25826,1.3093,41.63326,1.8093z"/>
<ellipse class="st0" cx="28.57076" cy="45.1218" rx="5.1875" ry="5.0625"/>
<ellipse class="st0" cx="48.57076" cy="45.0593" rx="5.1875" ry="5.5"/>
<ellipse class="st0" cx="68.82076" cy="45.3093" rx="5.6875" ry="5.75"/>
<g>
	<g>
		<g>
			<path class="st2" d="M115.62612,74.77002l6.90002,16.83997l-18-8.52997c-4.96002,2.34998-10.67004,3.70001-16.73004,3.70001
				c-8.37,0-16.04999-2.55005-22.03998-6.79004C83.8561,74.38,96.7961,59.46002,96.7961,41.94
				c0-5.13-1.10999-10.03998-3.13995-14.54999c16.38995,2.39001,28.87,14.67999,28.87,29.47998
				C122.52615,63.58002,119.96615,69.78003,115.62612,74.77002z"/>
		</g>
		<g>
			<path class="st2" d="M96.7961,41.94c0,17.52002-12.94,32.44-31.03998,38.04999C60.78615,81.54004,55.4161,82.38,49.82613,82.38
				c-8.21002,0-15.91998-1.81-22.63-5L2.8561,88.91998l9.33002-22.76996c-5.85999-6.75-9.33002-15.13-9.33002-24.21002
				c0-22.33002,21.03003-40.44,46.97003-40.44c19.97998,0,37.04999,10.75,43.83002,25.89001
				C95.68612,31.90002,96.7961,36.81,96.7961,41.94z"/>
		</g>
	</g>
	<g>
		<circle class="st3" cx="28.13684" cy="44.9978" r="6.07835"/>
		<circle class="st3" cx="48.3951" cy="44.9978" r="6.07835"/>
		<circle class="st3" cx="68.65331" cy="44.9978" r="6.07832"/>
	</g>
</g>
</svg>
