<?xml version="1.0" encoding="utf-8"?>
<!-- Generator: Adobe Illustrator 19.2.1, SVG Export Plug-In . SVG Version: 6.00 Build 0)  -->
<svg version="1.1" id="Isolation_Mode" xmlns="http://www.w3.org/2000/svg" xmlns:xlink="http://www.w3.org/1999/xlink" x="0px"
	 y="0px" viewBox="0 0 125.38179 94.62315" style="enable-background:new 0 0 125.38179 94.62315;" xml:space="preserve">
<style type="text/css">
	.st0{fill:none;stroke:#767471;stroke-width:3;stroke-miterlimit:10;}
	.st1{fill:none;stroke:#767471;stroke-width:3;stroke-linecap:round;stroke-miterlimit:10;}
</style>
<g>
	<g>
		<g>
			<path class="st0" d="M115.62612,74.77002l6.90002,16.83997l-18-8.52997c-4.96002,2.34998-10.67004,3.70001-16.73004,3.70001
				c-8.37,0-16.04999-2.55005-22.03998-6.79004C83.8561,74.38,96.7961,59.46002,96.7961,41.94
				c0-5.13-1.10999-10.03998-3.13995-14.54999c16.38995,2.39001,28.87,14.67999,28.87,29.47998
				C122.52615,63.58002,119.96615,69.78003,115.62612,74.77002z"/>
		</g>
		<g>
			<path class="st0" d="M96.7961,41.94c0,17.52002-12.94,32.44-31.03998,38.04999C60.78615,81.54004,55.4161,82.38,49.82613,82.38
				c-8.21002,0-15.91998-1.81-22.63-5L2.8561,88.91998l9.33002-22.76996c-5.85999-6.75-9.33002-15.13-9.33002-24.21002
				c0-22.33002,21.03003-40.44,46.97003-40.44c19.97998,0,37.04999,10.75,43.83002,25.89001
				C95.68612,31.90002,96.7961,36.81,96.7961,41.94z"/>
		</g>
	</g>
	<g>
		<circle class="st1" cx="28.13684" cy="44.9978" r="6.07835"/>
		<circle class="st1" cx="48.3951" cy="44.9978" r="6.07835"/>
		<circle class="st1" cx="68.65331" cy="44.9978" r="6.07832"/>
	</g>
</g>
</svg>
