<?xml version="1.0" encoding="utf-8"?>
<!-- Generator: Adobe Illustrator 18.1.0, SVG Export Plug-In . SVG Version: 6.00 Build 0)  -->
<svg version="1.1" id="Layer_1" xmlns="http://www.w3.org/2000/svg" xmlns:xlink="http://www.w3.org/1999/xlink" x="0px" y="0px"
	 viewBox="0 0 40.4 40.4" enable-background="new 0 0 40.4 40.4" xml:space="preserve">
<g>
	<path fill="#767471" d="M26.9,0c-7.4,0-13.5,6-13.5,13.5c0,1.8,0.4,3.6,1,5.1L0.2,32.7C0.1,32.9,0,33,0,33.2v6.4
		c0,0.4,0.3,0.7,0.7,0.7h6.4c0.2,0,0.4-0.1,0.5-0.2l2.6-2.8c0.1-0.1,0.2-0.3,0.2-0.5l0.1-1.6l1.6-0.1c0.2,0,0.3-0.1,0.4-0.2l2.1-1.8
		c0.2-0.1,0.3-0.3,0.3-0.6v-1.2h1.3c0.2,0,0.4-0.1,0.5-0.2l1.9-2h1.1c0.2,0,0.4-0.1,0.5-0.2l2.6-2.6c1.3,0.4,2.7,0.6,4,0.6
		c7.4,0,13.5-6,13.5-13.5C40.4,6,34.3,0,26.9,0z M19.5,27.6h-1.1c-0.2,0-0.4,0.1-0.5,0.2l-1.9,2h-1.8c-0.4,0-0.7,0.3-0.7,0.7v1.6
		l-1.7,1.5l-2,0.2c-0.4,0-0.7,0.3-0.7,0.7L9,36.5l-2.2,2.4H3.3l15-15c0.9,0.7,2,1.4,3.1,1.9L19.5,27.6z M26.9,25.4
		c-2.9,0-6-1.2-8.3-3.2c-0.3-0.3-0.8-0.2-1.1,0.1c-0.1,0.1-0.1,0.2-0.2,0.3c0,0,0,0,0,0L1.7,38.3c-0.1,0.1-0.2,0.3-0.2,0.5v-5.3
		l13.9-13.9l0.4-0.4c0.2-0.2,0.3-0.6,0.1-0.9c-0.6-1.3-1-3.2-1-4.9c0-6.6,5.4-12,12-12c6.6,0,12,5.4,12,12
		C38.9,20.1,33.5,25.4,26.9,25.4z"/>
	<path fill="#767471" d="M30.8,5.7c-2.2,0-3.9,1.8-3.9,3.9c0,2.2,1.8,3.9,3.9,3.9c2.2,0,3.9-1.8,3.9-3.9C34.7,7.4,32.9,5.7,30.8,5.7
		z M30.8,12c-1.3,0-2.4-1.1-2.4-2.4c0-1.3,1.1-2.4,2.4-2.4c1.3,0,2.4,1.1,2.4,2.4C33.2,10.9,32.1,12,30.8,12z"/>
</g>
</svg>
