<?xml version="1.0" encoding="utf-8"?>
<!-- Generator: Adobe Illustrator 18.1.0, SVG Export Plug-In . SVG Version: 6.00 Build 0)  -->
<svg version="1.1" id="Layer_1" xmlns="http://www.w3.org/2000/svg" xmlns:xlink="http://www.w3.org/1999/xlink" x="0px" y="0px"
	 viewBox="200 0 558.6 558.6" enable-background="new 200 0 558.6 558.6" xml:space="preserve">
<polyline fill="#B5DCEA" points="209.7,548.9 209.7,460.2 407.9,259.2 395.4,184.4 407.9,122 445.3,66.5 480,38.8 496.6,26.3 
	560.4,11.1 588.1,12.5 622.8,15.2 681,47.1 711.5,76.2 729.5,105.3 742,146.9 750.3,176 743.4,227.3 722.6,280 681,329.9 
	613.1,368.7 541,368.7 506.3,350.7 "/>
<polygon fill="#F7BCB8" points="219.4,548.9 452.3,318.8 505,349.3 480,396.4 457.8,396.4 424.6,424.2 402.4,424.2 396.8,445 
	369.1,472.7 334.5,476.8 333.1,512.9 304,548.9 "/>
<g>
	<path fill="#3E7D94" d="M572.9,0C470.3,0,385.7,83.2,385.7,187.1c0,25,5.5,49.9,13.9,70.7L202.8,453.3c-1.4,2.8-2.8,4.2-2.8,6.9
		v88.7c0,5.5,4.2,9.7,9.7,9.7h88.7c2.8,0,5.5-1.4,6.9-2.8l36-38.8c1.4-1.4,2.8-4.2,2.8-6.9l1.4-22.2l22.2-1.4c2.8,0,4.2-1.4,5.5-2.8
		l29.1-25c2.8-1.4,4.2-4.2,4.2-8.3v-16.6h18c2.8,0,5.5-1.4,6.9-2.8l26.3-27.7h15.2c2.8,0,5.5-1.4,6.9-2.8l36-36
		c18,5.5,37.4,8.3,55.4,8.3c102.6,0,187.1-83.2,187.1-187.1C760,83.2,675.4,0,572.9,0z M470.3,382.6H455c-2.8,0-5.5,1.4-6.9,2.8
		l-26.3,27.7h-25c-5.5,0-9.7,4.2-9.7,9.7V445l-23.6,20.8l-27.7,2.8c-5.5,0-9.7,4.2-9.7,9.7l-1.4,27.7l-30.5,33.3h-48.5l207.9-207.9
		c12.5,9.7,27.7,19.4,43,26.3L470.3,382.6z M572.9,352.1c-40.2,0-83.2-16.6-115-44.4c-4.2-4.2-11.1-2.8-15.2,1.4
		c-1.4,1.4-1.4,2.8-2.8,4.2l0,0L223.6,530.9c-1.4,1.4-2.8,4.2-2.8,6.9v-73.5l192.7-192.7l5.5-5.5c2.8-2.8,4.2-8.3,1.4-12.5
		c-8.3-18-13.9-44.4-13.9-67.9c0-91.5,74.9-166.3,166.3-166.3s166.3,74.9,166.3,166.3C739.2,278.6,664.4,352.1,572.9,352.1z"/>
	<path fill="#3E7D94" d="M626.9,79c-30.5,0-54.1,25-54.1,54.1c0,30.5,25,54.1,54.1,54.1c30.5,0,54.1-25,54.1-54.1
		C681,102.6,656,79,626.9,79z M626.9,166.3c-18,0-33.3-15.2-33.3-33.3s15.2-33.3,33.3-33.3s33.3,15.2,33.3,33.3
		S645,166.3,626.9,166.3z"/>
</g>
</svg>
