<?xml version="1.0" encoding="utf-8"?>
<!-- Generator: Adobe Illustrator 19.2.1, SVG Export Plug-In . SVG Version: 6.00 Build 0)  -->
<svg version="1.1" id="Layer_1" xmlns="http://www.w3.org/2000/svg" xmlns:xlink="http://www.w3.org/1999/xlink" x="0px" y="0px"
	 viewBox="0 0 28.96469 28.9629" style="enable-background:new 0 0 28.96469 28.9629;" xml:space="preserve">
<style type="text/css">
	.st0{fill:#818383;}
</style>
<g>
	<path class="st0" d="M21.30463,28.9629c-1.4023,0-6.8672-1.46-13.3554-7.9482c-6.7574-6.7569-7.9883-12.2959-7.9483-13.4102
		c0.0283-0.7969,0.9224-3.6191,4.665-7.0674C4.81003,0.3799,5.22503,0,5.84563,0c0.3662,0,0.7271,0.1397,1.044,0.4033
		c0.7822,0.6514,4.5532,5.2979,5.188,6.5977c0.542,1.1094,0.247,2.0156-0.8755,2.6933l-0.2715,0.1758
		c-2.9434,1.9492-2.9443,2.7041-2.9439,2.7119c0.5748,1.1387,2.336,3.6114,3.5601,4.835c1.2232,1.2236,3.6958,2.9854,4.8618,3.5684
		c0.0049-0.0078,0.7578-0.042,2.6861-2.9522l0.1748-0.2705c0.2226-0.3691,0.6855-1.1377,1.6748-1.1377
		c0.3213,0,0.664,0.0879,1.0185,0.2608c1.2984,0.6337,5.9453,4.4043,6.5987,5.1875c0.3769,0.4531,0.4238,0.8916,0.3969,1.1806
		c-0.0512,0.5449-0.3872,0.9102-0.5302,1.043c-3.4473,3.7412-6.2696,4.6367-7.0679,4.665
		C21.35153,28.9629,21.31393,28.9629,21.30463,28.9629z M5.83933,1.499c-0.0215,0.0264-0.1055,0.0938-0.1309,0.1172
		c-3.4111,3.1338-4.1953,5.6719-4.2085,6.042c-0.0009,0.0469,0.4639,5.25,7.5098,12.2959
		c7.0684,7.0684,12.2471,7.5088,12.2949,7.5088v0.75l0.0025-0.75c0.3696-0.0127,2.9087-0.7978,6.0415-4.209
		c0.0234-0.0254,0.0483-0.0488,0.0747-0.0703c0.0088-0.0098,0.0381-0.0527,0.042-0.0713h-0.0005
		c-0.0025,0-0.0166-0.0312-0.0562-0.0791c-0.501-0.6006-5.0293-4.2754-6.104-4.7998c-0.1938-0.0947-0.3091-0.1084-0.3603-0.1084
		c-0.1099,0-0.1973,0.0918-0.3897,0.4111c-0.0459,0.0762-0.0879,0.1456-0.1274,0.2032l-0.0821,0.122
		c-1.6567,2.501-2.8789,3.6163-3.9624,3.6163c-0.2285,0-0.4453-0.0508-0.6445-0.1504c-1.2993-0.6495-3.8765-2.4727-5.2524-3.8496
		c-1.377-1.377-3.1997-3.9532-3.8487-5.252c-0.77-1.5381,1.4473-3.2695,3.4654-4.6064l0.122-0.0811
		c0.0572-0.04,0.1265-0.083,0.2027-0.1289c0.4277-0.2578,0.5166-0.3115,0.3027-0.75c-0.5254-1.0762-4.1997-5.6025-4.8008-6.1035
		C5.87983,1.5147,5.84763,1.501,5.83933,1.499z"/>
</g>
</svg>
