<?xml version="1.0" encoding="utf-8"?>
<!-- Generator: Adobe Illustrator 19.2.1, SVG Export Plug-In . SVG Version: 6.00 Build 0)  -->
<svg version="1.1" id="_x2014_ÎÓÈ_x5F_1" xmlns="http://www.w3.org/2000/svg" xmlns:xlink="http://www.w3.org/1999/xlink"
	 x="0px" y="0px" viewBox="0 0 537 536.98999" style="enable-background:new 0 0 537 536.98999;" xml:space="preserve">
<style type="text/css">
	.st0{fill:#818383;}
</style>
<g>
	<g>
		<path class="st0" d="M461.35999,81.69c-24.75-25.54999-53.79999-45.65002-86.34998-59.73004
			C341.34003,7.39001,305.51001,0,268.5,0s-72.84003,7.39001-106.51001,21.95996c-10.14001,4.38-20.04999,9.41003-29.45996,14.94
			C111.75,49.10999,92.60999,64.17999,75.64001,81.69C26.85999,132.02997,0,198.38,0,268.5
			c0,70.07001,26.83002,136.37,75.53998,186.70001c24.78003,25.59998,53.84003,45.71997,86.38,59.81
			C195.52002,529.54999,231.27002,536.94,268.19,536.98999h0.63c27-0.02002,53.52997-4.02002,78.95001-11.88l-16.67999-48.19
			c-18.77002,24.90002-40.54004,38.53003-62.18005,38.69c-0.21997,0.02002-0.41998,0.02002-0.62994,0h-0.07001
			c-0.04004,0.01001-0.09003,0-0.13,0c-29.56-0.25-59.08002-25.59998-81.04004-69.58002
			c-3.04999-6.08997-6-12.65997-8.78998-19.53998l-2.85999-7.03998l7.39996-1.73004c27.31-6.39001,56.15002-9.63,85.71002-9.63
			c13.31,0,26.53998,0.66003,39.45001,1.97003l-7.66003-22.14001C289.81,387.12,279.13,386.71997,268.5,386.71997
			c-32.37,0-63.95001,3.70001-93.85999,10.98999L168.56,399.19l-1.71002-6.01001c-9.39996-32.91003-14.81995-69-16.09998-107.28003
			l-0.21997-6.70996h235.93994l-0.22998,6.71997c-0.14996,4.48004-0.35999,9.02002-0.63,13.57001l20.95001,7.25
			c0.5-7.02997,0.85999-14.15002,1.09003-21.25l0.19995-6.28998h107.64001L515,286.14001
			c-1.31,18.56995-4.70001,36.90997-10.09998,54.62994l20.22998,7c7.88-25.58997,11.87-52.21997,11.87-79.26996
			C537,198.37,510.14001,132.01996,461.35999,81.69z M224.91998,39.58997C238.81,27.71997,253.65997,21.38,268.5,21.38
			c29.70001,0,59.39001,25.35999,81.46002,69.58997c3.00995,6.01001,5.94995,12.53003,8.72998,19.37l2.87,7.05005l-7.40997,1.72998
			c-27.30005,6.38-56.11005,9.60999-85.65002,9.60999c-29.56,0-58.38-3.22998-85.64001-9.62l-7.39996-1.72998l2.85999-7.05005
			c2.76001-6.79999,5.69-13.31,8.71997-19.35999C198.08002,68.85999,211.02002,51.45996,224.91998,39.58997z M22,250.85999
			c3.77002-53.51001,24.33002-103.26001,59.45001-143.87l3.53998-4.08002l4.66003,2.72003
			c16.00995,9.35999,33.70996,17.42999,52.59998,23.97998l5.81,2.02002l-1.69,5.91998
			c-10.02002,34.96002-15.73999,73.29999-17.02002,113.96997l-0.19995,6.29004H21.51001L22,250.85999z M84.89001,433.96997
			L81.35999,429.88C46.29999,389.31,25.77002,339.60999,22,286.14001L21.51001,279.19h107.64001l0.19995,6.28998
			c1.27002,40.59003,6.98004,78.87,16.97003,113.79999l1.70001,5.92004l-5.81,2.00995
			c-18.86005,6.55005-36.57001,14.63-52.65002,24.03003L84.89001,433.96997z M154.82001,425.46997l2.27997,5.81
			c8.94,22.75,19.69,42.5,31.95001,58.71002l13.54999,17.90997l-21.01996-7.90997c-0.91003-0.34003-1.81-0.67999-2.72003-1.03003
			l-0.64996-0.25995c-0.27002-0.10004-0.53003-0.20001-0.79004-0.31c-1.44-0.56006-2.84998-1.13-4.20001-1.69H173.19
			l-1.23999-0.53003c-1.77002-0.77002-3.54004-1.53998-5.29999-2.34003c-0.28003-0.12-0.55005-0.25-0.83002-0.37994
			l-0.66998-0.32001c-1.31-0.60004-2.55005-1.17999-3.78003-1.77002c-0.38-0.17999-0.82001-0.40002-1.27002-0.62l-0.57996-0.28998
			c-1.14001-0.56-2.27002-1.12006-3.39001-1.70001c-0.44-0.21002-0.92999-0.47003-1.42999-0.73004l-1.45001-0.75995
			c-0.78003-0.42004-1.56-0.83002-2.34003-1.26001l-0.46997-0.25c-0.5-0.27002-1-0.54999-1.48999-0.82001
			c-1.04999-0.58002-2.13-1.19-3.19-1.81c-0.62-0.35004-1.25-0.71002-1.88-1.08002c-0.91998-0.52997-1.85999-1.09998-2.81-1.67999
			L140.47998,480c-0.52997-0.32001-1.06-0.64001-1.59998-0.97003c-1.28003-0.79999-2.53003-1.58997-3.77002-2.38l-0.31-0.19995
			c-0.31-0.20001-0.62-0.39001-0.92999-0.60004c-1.59998-1.04999-3.25-2.14996-4.87-3.26001l-0.26001-0.16998
			c-1.52997-1.06-3.06-2.15002-4.56-3.23999c-0.33997-0.23999-0.70001-0.5-1.06-0.77002l-0.40002-0.29999
			c-1.07996-0.78998-2.17999-1.59998-3.25995-2.42999c-0.40002-0.29999-0.82001-0.62-1.23004-0.95001l-0.5-0.38
			c-0.95996-0.73999-1.95996-1.52002-2.95996-2.33002L113,460.59998c-0.92999-0.76001-1.85999-1.52997-2.78998-2.31
			c-0.61005-0.51001-1.23004-1.02997-1.85004-1.56c-0.21997-0.19-0.5-0.42999-0.76996-0.66998l-7.42004-6.47003l8.29004-4.44995
			c12.46997-6.69,26.07996-12.62006,40.45996-17.62006L154.82001,425.46997z M148.97998,109.32001
			c-14.37-5.01001-27.96997-10.92004-40.40997-17.57001l-8.5-4.54999l7.39996-6.17004c0.18005-0.15997,0.36005-0.31,0.54004-0.46997
			l2.29999-1.96002c0.90002-0.76001,1.77002-1.45996,2.63-2.15997c0.69-0.57001,1.34998-1.09003,2-1.62
			c0.92999-0.74005,1.83002-1.44,2.72998-2.14001l1.94-1.48999c0.75-0.58002,1.53003-1.15002,2.32001-1.73004l0.71002-0.51996
			c0.56-0.42004,1.12-0.83002,1.69-1.25c1.25-0.90002,2.51001-1.78003,3.76001-2.65002l0.29999-0.21002
			c0.25-0.17999,0.51001-0.37,0.77997-0.54999c1.57001-1.07001,3.16003-2.14996,4.77002-3.19
			c0.40997-0.26996,0.83002-0.53998,1.25-0.79999l0.41998-0.26001c1.04999-0.67999,2.15002-1.38995,3.26001-2.07001
			c0.69-0.42999,1.37-0.82996,2.04999-1.23999c0.94-0.57001,1.94-1.16998,2.94-1.76001
			c0.67004-0.38995,1.35004-0.77997,2.03003-1.16998l0.12-0.07001c0.97998-0.56,1.95996-1.12,2.92999-1.65997
			c0.73999-0.41003,1.47998-0.81,2.21997-1.21002c0.97003-0.52997,1.96002-1.04999,2.95001-1.56l0.48999-0.26001
			c0.58002-0.31,1.15002-0.60999,1.73004-0.89996c0.73999-0.38,1.5-0.76001,2.25-1.13l2.95996-1.45001
			c1.10004-0.53998,2.21002-1.04999,3.33002-1.56c0.57001-0.27002,1.22998-0.58002,1.88-0.88
			c1.52002-0.67999,2.95001-1.31,4.40002-1.92999l0.94995-0.41003c1.94-0.82996,3.87-1.59998,5.34003-2.17999
			c0.40002-0.16998,0.84998-0.33997,1.29999-0.51001l0.54999-0.20996c0.75-0.29004,1.52002-0.58002,2.29004-0.87l21.08997-7.98004
			L189.06,47c-12.22998,16.17999-22.96002,35.88-31.89001,58.56l-2.28998,5.81L148.97998,109.32001z M150.53003,257.81
			l0.21997-6.71002c1.28003-38.33002,6.71002-74.46997,16.14001-107.44l1.71997-6l6.07001,1.47003
			C204.63,146.41998,236.19,150.10999,268.5,150.10999s63.87-3.69,93.82001-10.97998l6.07001-1.47003l1.70996,6
			c9.44,32.97003,14.86005,69.10999,16.14001,107.44l0.22998,6.71002H150.53003z M382.12,111.37l-2.28998-5.81
			C370.90002,82.88,360.16998,63.17999,347.94,47l-13.67999-18.07001l23.87,9.09998c0.25,0.10004,0.5,0.20001,0.76001,0.29004
			l0.57996,0.22998c2.01001,0.79999,3.79004,1.52002,5.47003,2.23999l0.25,0.10004c1.65002,0.69995,3.31,1.42999,5.08002,2.22998
			c0.54999,0.25,1.08997,0.5,1.63,0.76001c1.20996,0.53998,2.40997,1.10999,3.60999,1.67999
			c0.66998,0.33002,1.33002,0.64996,1.97998,0.97998C378.56,47.06,379.66998,47.62,380.78003,48.19l1.92999,0.98999
			c1.12,0.58997,2.19,1.15997,3.25,1.72998l1.95996,1.07001c1.11005,0.63,2.16003,1.22003,3.20001,1.81
			c0.60999,0.35004,1.27002,0.72998,1.91998,1.10999c0.75,0.44,1.47003,0.87,2.19,1.31l1.04004,0.62
			c0.60999,0.37006,1.20996,0.73004,1.81,1.10004c1.22998,0.76001,2.45996,1.53998,3.67999,2.33002l0.57001,0.35999
			c0.22998,0.14996,0.45996,0.29999,0.69,0.45001c1.60999,1.03998,3.25,2.13995,4.83997,3.22998
			c0.23999,0.15997,0.48004,0.33002,0.72003,0.5c1.37,0.95001,2.76001,1.92999,4.14996,2.92999
			c0.29004,0.21002,0.65002,0.47998,1,0.72998l0.52002,0.38c1.03998,0.77002,2.06,1.54004,3.08002,2.31l0.10999,0.07001
			c0.60999,0.47003,1.21002,0.92999,1.82001,1.41003c0.91998,0.70996,1.85999,1.44,2.79999,2.19
			c0.65002,0.50995,1.28998,1.03998,1.92999,1.56c0.87,0.69995,1.79999,1.45996,2.71002,2.23999
			c0.58997,0.47998,1.20001,1,1.83002,1.52997c0.41998,0.37,0.79999,0.70001,1.16998,1.04004l6.88,6.19l-8.16003,4.37
			c-12.42999,6.64996-26.02997,12.56-40.39996,17.57001L382.12,111.37z M407.84998,257.81l-0.19995-6.29004
			c-1.28003-40.65997-7-79.00995-17.02002-113.96997l-1.70001-5.91998l5.82001-2.02002
			c18.84998-6.53003,36.54999-14.59998,52.59998-23.97998l4.66003-2.72003l3.52997,4.08002
			c35.13,40.58002,55.69,90.33002,59.46002,143.87l0.48999,6.95001H407.84998z"/>
	</g>
	<g>
		<polygon class="st0" points="534.31,508.22998 508.22998,534.29999 431.85999,457.94 398.40997,526.57001 330.54999,330.54999 
			526.57001,398.40997 457.94,431.85999 		"/>
	</g>
</g>
</svg>
