<?xml version="1.0" encoding="utf-8"?>
<!-- Generator: Adobe Illustrator 19.2.1, SVG Export Plug-In . SVG Version: 6.00 Build 0)  -->
<svg version="1.1" id="Layer_1" xmlns="http://www.w3.org/2000/svg" xmlns:xlink="http://www.w3.org/1999/xlink" x="0px" y="0px"
	 viewBox="0 0 27.14061 19.128" style="enable-background:new 0 0 27.14061 19.128;" xml:space="preserve">
<style type="text/css">
	.st0{fill:#818383;}
</style>
<g>
	<path class="st0" d="M23.55561,0H3.5849C1.6084,0,0,1.608,0,3.5845v11.959c0,1.9766,1.6084,3.5845,3.5849,3.5845h19.97071
		c1.97659,0,3.585-1.6079,3.585-3.5845V3.5845C27.14061,1.608,25.5322,0,23.55561,0z M25.64061,15.5435
		c0,1.1494-0.93551,2.0845-2.085,2.0845H3.5849c-1.1494,0-2.0849-0.9351-2.0849-2.0845V3.5845C1.5,2.4351,2.4355,1.5,3.5849,1.5
		h19.97071c1.14949,0,2.085,0.9351,2.085,2.0845V15.5435z"/>
	<path class="st0" d="M22.3613,4.3907L13.4345,9.669L4.3828,4.3345C4.0234,4.1211,3.5664,4.2432,3.3554,4.5997
		C3.1455,4.9566,3.26461,5.4165,3.6211,5.6265l9.4336,5.5596c0.1172,0.0693,0.249,0.104,0.3808,0.104
		c0.1319,0,0.2637-0.0347,0.3819-0.1045l9.3076-5.5039c0.3564-0.211,0.47461-0.6709,0.26361-1.0274
		C23.1787,4.2979,22.7187,4.1807,22.3613,4.3907z"/>
</g>
</svg>
