<?xml version="1.0" encoding="utf-8"?>
<!-- Generator: Adobe Illustrator 19.2.1, SVG Export Plug-In . SVG Version: 6.00 Build 0)  -->
<svg version="1.1" id="Isolation_Mode" xmlns="http://www.w3.org/2000/svg" xmlns:xlink="http://www.w3.org/1999/xlink" x="0px"
	 y="0px" viewBox="0 0 53.18684 86.4741" style="enable-background:new 0 0 53.18684 86.4741;" xml:space="preserve">
<style type="text/css">
	.st0{fill:#4D4D4E;}
</style>
<g>
	<path class="st0" d="M35.57544,59.2202h-19.5508c-0.497,0-0.8999-0.4023-0.8999-0.8994v-9.2393
		c0-6.4087,5.4546-11.0503,10.2671-15.146c3.3145-2.8208,6.4444-5.4843,6.4444-7.8388c0-3.7559-3.5557-6.2793-6.8775-6.2793
		c-3.9316,0-7.2744,3.2793-11.0835,8.2036c-0.1548,0.1997-0.38619,0.3252-0.63819,0.3462
		c-0.25441,0.0229-0.50091-0.0655-0.68651-0.2373L0.28734,16.7422c-0.3432-0.3189-0.3842-0.8477-0.0947-1.2158
		C8.41044,5.0786,17.26784,0,27.27074,0c15.2598,0,25.9161,10.8266,25.9161,26.3291c0,9.3618-6.1231,14.4536-11.044,18.5454
		c-3.041,2.5283-5.667,4.7129-5.667,7.0937v6.3526C36.47583,58.8179,36.07254,59.2202,35.57544,59.2202z M16.92454,57.4204h17.75051
		v-5.4522c0-3.2255,2.9268-5.6591,6.31739-8.478c4.6309-3.8506,10.3945-8.6435,10.3945-17.1611
		c0-14.4424-9.91689-24.5293-24.1162-24.5293c-9.2085,0-17.4414,4.644-25.1469,14.1909l10.9336,10.1528
		c3.208-4.0649,7.0253-8.1259,11.9013-8.1259c4.1909,0,8.6782,3.2465,8.6782,8.0791c0,3.186-3.2802,5.9775-7.0786,9.2099
		c-4.5156,3.8423-9.6338,8.1978-9.6338,13.7749V57.4204z"/>
</g>
<g>
	<path class="st0" d="M25.53644,86.4741c-6.77539,0-12.2871-5.5117-12.2871-12.2871c0-6.7754,5.51171-12.2871,12.2871-12.2871
		c6.7744,0,12.2871,5.5117,12.2871,12.2871C37.82354,80.9624,32.31084,86.4741,25.53644,86.4741z M25.53644,63.6997
		c-5.7828,0-10.4869,4.7051-10.4869,10.4873c0,5.7822,4.7041,10.48631,10.4869,10.48631c5.7822,0,10.4873-4.7041,10.4873-10.48631
		C36.02374,68.4048,31.31864,63.6997,25.53644,63.6997z"/>
</g>
</svg>
