<?xml version="1.0" encoding="utf-8"?>
<!-- Generator: Adobe Illustrator 19.2.1, SVG Export Plug-In . SVG Version: 6.00 Build 0)  -->
<svg version="1.1" id="Icons" xmlns="http://www.w3.org/2000/svg" xmlns:xlink="http://www.w3.org/1999/xlink" x="0px" y="0px"
	 viewBox="0 0 414.05371 453.95599" style="enable-background:new 0 0 414.05371 453.95599;" xml:space="preserve">
<style type="text/css">
	.st0{fill:#767471;}
</style>
<g id="_x31_0">
	<g>
		<path class="st0" d="M284.15869,431.18549c-3.86618,0-7-3.13379-7-7c0-3.86618,3.13382-7,7-7
			c40.1944,0,72.89502-32.7002,72.89502-72.8945c0-3.86618,3.13379-7,7-7c3.86618,0,7,3.13382,7,7
			C371.05371,392.20511,332.07281,431.18549,284.15869,431.18549z"/>
	</g>
	<g>
		<path class="st0" d="M370.09329,214.9463c-3.86618,0-7-3.1338-7-7v-37.8799C363.09329,84.0107,293.08209,14,207.0269,14
			S50.9605,84.0107,50.9605,170.06641v37.35149c0,3.8663-3.1338,7-7,7s-7-3.1337-7-7v-37.35149C36.9605,76.291,113.252,0,207.0269,0
			s170.06639,76.291,170.06639,170.06641v37.8799C377.09329,211.8125,373.9595,214.9463,370.09329,214.9463z"/>
	</g>
	<g>
		<path class="st0" d="M60.5357,352.07129h-7.9082C23.6084,352.07129,0,328.46289,0,299.44431v-46.3994
			c0-29.0186,23.6084-52.62701,52.6275-52.62701h7.9082c15.1001,0,27.3852,12.2852,27.3852,27.38481v96.88278
			C87.9209,339.7861,75.6358,352.07129,60.5357,352.07129z M52.6275,214.41789c-21.2994,0-38.6275,17.3282-38.6275,38.62701v46.3994
			c0,21.2988,17.3281,38.62698,38.6275,38.62698h7.9082c7.38079,0,13.3852-6.00488,13.3852-13.3858V227.8027
			c0-7.38091-6.0044-13.38481-13.3852-13.38481H52.6275z"/>
	</g>
	<g>
		<path class="st0" d="M361.4263,352.07129h-7.90869c-15.1001,0-27.38531-12.28519-27.38531-27.3858V227.8027
			c0-15.09961,12.28522-27.38481,27.38531-27.38481h7.90869c29.01901,0,52.62741,23.60841,52.62741,52.62701v46.3994
			C414.05371,328.46289,390.44531,352.07129,361.4263,352.07129z M353.51761,214.41789
			c-7.38092,0-13.38531,6.00391-13.38531,13.38481v96.88278c0,7.38092,6.00439,13.3858,13.38531,13.3858h7.90869
			c21.29929,0,38.62741-17.32819,38.62741-38.62698v-46.3994c0-21.29881-17.32812-38.62701-38.62741-38.62701H353.51761z"/>
	</g>
	<g>
		<path class="st0" d="M261.90869,453.95599c-0.0014-0.00089-0.01019-0.00089-0.01068,0l-30.67432-0.01068
			c-14.8931-0.00491-27.00589-12.12601-27.0015-27.01862c0.0054-14.88959,12.1221-27.00189,27.0098-27.00189l30.68399,0.01068
			c7.21442,0.00201,13.99661,2.81351,19.09671,7.91702c5.09961,5.1026,7.9072,11.88669,7.90482,19.10159
			C288.91211,441.84271,276.7959,453.95599,261.90869,453.95599z M231.2368,413.9248c-7.1757,0-13.01221,5.8349-13.0146,13.00681
			c-0.0024,7.17288,5.8325,13.0108,13.0063,13.0137l30.67439,0.01068l0.00482,7l0.00049-7
			c7.1709,0,13.0069-5.83398,13.00931-13.00681c0.00098-3.47458-1.3511-6.74219-3.80762-9.2002
			c-2.4566-2.45801-5.72321-3.8125-9.1983-3.81351L231.2368,413.9248z"/>
	</g>
</g>
</svg>
