<?xml version="1.0" encoding="utf-8"?>
<!-- Generator: Adobe Illustrator 19.2.1, SVG Export Plug-In . SVG Version: 6.00 Build 0)  -->
<svg version="1.1" id="Layer_1" xmlns="http://www.w3.org/2000/svg" xmlns:xlink="http://www.w3.org/1999/xlink" x="0px" y="0px"
	 viewBox="0 0 20.34688 25.2163" style="enable-background:new 0 0 20.34688 25.2163;" xml:space="preserve">
<style type="text/css">
	.st0{fill:#818383;}
</style>
<g>
	<path class="st0" d="M19.59688,0H6.35278c-0.1993,0-0.3897,0.0791-0.5303,0.2197l-5.6094,5.6089
		c-0.1738,0.1733-0.24309,0.4179-0.2012,0.6533v17.9844c0,0.414,0.336,0.75,0.75,0.75h18.835c0.41411,0,0.75-0.336,0.75-0.75V0.75
		C20.34688,0.3359,20.01099,0,19.59688,0z M6.64958,1.5136v5.3081h-5.1377V6.6508L6.64958,1.5136z M18.84688,23.7163h-17.335V8.3217
		h5.8877c0.4141,0,0.75-0.3359,0.75-0.75V1.5h10.6973V23.7163z"/>
	<path class="st0" d="M5.46508,10.9565c-0.41409,0-0.75,0.3359-0.75,0.75s0.33591,0.75,0.75,0.75h9.4111
		c0.4141,0,0.75-0.3359,0.75-0.75s-0.3359-0.75-0.75-0.75H5.46508z"/>
	<path class="st0" d="M14.87618,14.9174h-9.4111c-0.41409,0-0.75,0.336-0.75,0.75c0,0.4141,0.33591,0.75,0.75,0.75h9.4111
		c0.4141,0,0.75-0.3359,0.75-0.75C15.62618,15.2534,15.29028,14.9174,14.87618,14.9174z"/>
	<path class="st0" d="M14.87618,18.8784h-9.4111c-0.41409,0-0.75,0.3359-0.75,0.75c0,0.414,0.33591,0.75,0.75,0.75h9.4111
		c0.4141,0,0.75-0.336,0.75-0.75C15.62618,19.2143,15.29028,18.8784,14.87618,18.8784z"/>
</g>
</svg>
