<?xml version="1.0" encoding="utf-8"?>
<!-- Generator: Adobe Illustrator 21.0.0, SVG Export Plug-In . SVG Version: 6.00 Build 0)  -->
<svg version="1.1" id="Layer_1" xmlns="http://www.w3.org/2000/svg" xmlns:xlink="http://www.w3.org/1999/xlink" x="0px" y="0px"
	 viewBox="0 0 558.6 558.6" style="enable-background:new 0 0 558.6 558.6;" xml:space="preserve">
<style type="text/css">
	.st0{fill:#FCC3BB;}
	.st1{fill:#B5DCEA;}
	.st2{fill:#F5D7D6;}
	.st3{fill:#767471;}
</style>
<polygon class="st0" points="232,288.7 201.4,274.8 158.5,286.7 13.7,437.4 18.7,479.2 57.4,527.5 82.5,544.4 77.4,544.4 120.9,539 
	221.7,444.6 288,377.7 288,333.9 "/>
<polygon class="st1" points="235.9,173 245.2,137.4 233.5,88.2 210.6,39.9 168.7,20.2 124,4.6 82.5,20.2 163.9,106.1 143.1,145.2 
	116.9,163.9 87.7,155.8 23.8,92 13.8,106.1 8.8,131 11.5,164.2 46,207.8 90.6,232.5 116.9,238.5 175,227.5 335.4,378.4 324.2,398.6 
	318.7,429.7 327.4,479.2 356,515.8 396.5,539 437.1,545.5 474.4,534.6 393.2,447.9 400.9,429.7 441.5,393.1 455.8,397.5 536.2,471 
	546.8,445.7 534.7,368.2 476.6,327.3 434.9,318.6 406.4,325.1 391.1,328.4 379,324 "/>
<polygon class="st2" points="240.7,289.3 406.4,118.9 412.3,82.4 476.6,27.5 525.9,89.3 473.3,145.2 434.7,151.5 271.3,314.9 
	232,288.7 "/>
<g>
	<path class="st3" d="M173.4,235.4l21.3,21.3c2.4-0.2,4.8-0.4,7.3-0.4c4.2,0,8.4,0.4,12.5,1.1l-34.8-34.8c-2-2-5.1-2.5-7.7-1.3
		c-40.8,19.5-89.7,11.4-121.7-20.3c-29.1-28.8-39-70.7-26.5-109l72.5,72.5c9.1,9.1,23.9,9.1,33,0l35.7-35.7c9.1-9.1,9.1-23.9,0-33
		L92.5,23.4c38.1-12.5,79.8-2.7,108.6,26.1c32.1,32.1,40.4,81.2,20.7,122.1c-1.2,2.6-0.7,5.7,1.3,7.7l48.5,48.5l9.5-9.5L235.9,173
		c19.6-45.1,9.7-98-25.3-133.1c-35.2-35.2-87.3-45.1-133-25.4c-2,0.9-3.5,2.7-3.9,4.9c-0.4,2.2,0.3,4.4,1.9,6l79.8,79.8
		c3.8,3.8,3.8,10.1,0,13.9l-35.7,35.7c-3.8,3.8-10.1,3.8-13.9,0L26,75.1c-1.6-1.6-3.8-2.3-6-1.9c-2.2,0.4-4,1.9-4.9,3.9
		C-4.8,123,5.3,175.4,40.8,210.6C75.7,245.1,128.4,254.8,173.4,235.4z"/>
	<path class="st3" d="M517.7,347c-34.9-34.6-87.6-44.3-132.6-24.9l-41.5-41.5l-9.5,9.5l44.8,44.8c2,2,5.1,2.5,7.7,1.3
		c40.8-19.6,89.7-11.4,121.7,20.3c29.1,28.8,39,70.7,26.5,109l-72.5-72.5c-9.1-9.1-23.9-9.1-33,0l-35.7,35.7c-9.1,9.1-9.1,23.9,0,33
		l72.5,72.5c-38.1,12.5-79.8,2.7-108.6-26.1C325.3,476,317,426.9,336.7,386c1.2-2.6,0.7-5.7-1.3-7.7l-31.1-31.1
		c1.1,6.5,1.4,13.2,0.7,19.7l17.6,17.6c-19.6,45.1-9.7,98,25.3,133.1c35.2,35.2,87.3,45.1,133,25.4c2-0.9,3.5-2.7,3.9-4.9
		c0.4-2.2-0.3-4.4-1.9-6l-79.8-79.8c-3.8-3.8-3.8-10.1,0-13.9l35.7-35.7c3.8-3.8,10.1-3.8,13.9,0l79.8,79.8c1.6,1.6,3.8,2.3,6,1.9
		c1.3-0.3,2.6-0.9,3.5-1.9c0.6-0.6,1.1-1.3,1.4-2.1C563.3,434.5,553.2,382.2,517.7,347z"/>
	<path class="st3" d="M443.1,162.1l33.7-11c1-0.3,1.9-0.9,2.7-1.6l54.8-54.8c2.6-2.6,2.6-6.9,0-9.5l-57.6-57.6
		c-2.6-2.6-6.9-2.6-9.5,0l-54.8,54.8c-0.7,0.7-1.3,1.7-1.6,2.7l-11,33.7L237,281.4c-22.8-17.1-55.5-15.3-76.3,5.4L25.9,421.7
		c-22.8,22.8-22.8,59.8,0,82.6l31.7,31.7c22.8,22.8,59.8,22.8,82.6,0l134.8-134.8c20.8-20.8,22.6-53.4,5.4-76.3L443.1,162.1z
		 M410.3,127.1c0.7-0.7,1.3-1.7,1.6-2.7l11-33.7l48.9-48.9L520,89.9L471,138.8l-33.7,11c-1,0.3-1.9,0.9-2.7,1.6L271.3,314.9
		l-24.4-24.4L410.3,127.1z M265.4,391.6L130.6,526.4c-17.5,17.5-46,17.5-63.5,0l-31.7-31.7c-17.5-17.5-17.5-46,0-63.5l134.8-134.8
		c17.5-17.5,46-17.5,63.5,0l31.7,31.7C282.9,345.6,282.9,374.1,265.4,391.6z"/>
	<path class="st3" d="M216.3,308.9c-2.6-2.6-6.9-2.6-9.5,0L47.9,467.7c-2.6,2.6-2.6,6.9,0,9.5c2.6,2.6,6.9,2.6,9.5,0l158.8-158.8
		C218.9,315.8,218.9,311.6,216.3,308.9z"/>
	<path class="st3" d="M243.3,345.5L84.5,504.3c-2.6,2.6-2.6,6.9,0,9.5c2.6,2.6,6.9,2.6,9.5,0L252.9,355c2.6-2.6,2.6-6.9,0-9.5
		C250.2,342.9,246,342.9,243.3,345.5z"/>
</g>
</svg>
