<?xml version="1.0" encoding="utf-8"?>
<!-- Generator: Adobe Illustrator 19.2.1, SVG Export Plug-In . SVG Version: 6.00 Build 0)  -->
<svg version="1.1" id="Layer_1" xmlns="http://www.w3.org/2000/svg" xmlns:xlink="http://www.w3.org/1999/xlink" x="0px" y="0px"
	 viewBox="0 0 114.82001 114.81995" style="enable-background:new 0 0 114.82001 114.81995;" xml:space="preserve">
<style type="text/css">
	.st0{fill:#A5A5A7;}
</style>
<g>
	<g>
		<g>
			<path class="st0" d="M99.04999,17.88c1.17999-1.51001,1.83002-3.39001,1.83002-5.31c0-4.76001-3.87-8.63-8.63-8.63
				c-2.71002,0-5.17999,1.21997-6.81,3.35999C76.91998,2.51996,67.22998,0,57.40997,0C25.75,0,0,25.75,0,57.40997
				c0,14.71002,5.54999,28.67999,15.63,39.37C15.13,97.88,14.87,99.09998,14.87,100.32001c0,4.76001,3.87,8.63,8.63,8.63
				c1.89996,0,3.76001-0.64001,5.26001-1.80005c8.66998,5.02002,18.57996,7.66998,28.64996,7.66998
				c31.66003,0,57.41003-25.74994,57.41003-57.40997C114.82001,42.62,109.21997,28.58997,99.04999,17.88z M92.25,7.78998
				c2.64001,0,4.77997,2.14001,4.77997,4.78003c0,2.63995-2.13995,4.77997-4.77997,4.77997s-4.78003-2.14001-4.78003-4.77997
				C87.46997,9.92999,89.60999,7.78998,92.25,7.78998z M23.5,105.08997c-2.63,0-4.77002-2.13995-4.77002-4.76996
				c0-2.64001,2.14001-4.78003,4.77002-4.78003c2.64001,0,4.77997,2.14001,4.77997,4.78003
				C28.27997,102.95001,26.14001,105.08997,23.5,105.08997z M57.40997,110.71997c-9.14001,0-18.14996-2.34998-26.07001-6.81
				c0.38-0.82001,0.62-1.67999,0.73004-2.56c0.03998-0.34998,0.06-0.69,0.06-1.02997c0-4.76001-3.87-8.63-8.63-8.63
				c-1.06,0-2.08002,0.19-3.03003,0.56c-0.78998,0.28998-1.54999,0.71997-2.26001,1.26001
				C9.10999,83.66998,4.09998,70.85999,4.09998,57.40997c0-29.39996,23.91003-53.31,53.31-53.31
				c9.23999,0,18.35004,2.41003,26.35004,6.96002c-0.06,0.29999-0.09003,0.62-0.11005,0.94
				C83.64001,12.19,83.63,12.37,83.63,12.57001c0,4.75,3.87,8.62,8.62,8.62c0.85999,0,1.73999-0.13,2.60999-0.40002
				C95.19,20.69,95.5,20.56,95.79999,20.41998c9.62,9.97998,14.91998,23.10999,14.91998,36.98999
				C110.71997,86.79999,86.79999,110.71997,57.40997,110.71997z"/>
		</g>
	</g>
	<g>
		<g>
			<path class="st0" d="M99.57001,48.32001c-0.48999-2.58002-1.22003-5.10004-2.19-7.57001
				C95.44,35.83997,92.62,31.35999,89,27.45001c-3.04999-3.28003-6.53003-6.04004-10.35004-8.21002
				c-6.51996-3.72003-13.96997-5.69-21.53998-5.69c-23.58002,0-42.77002,19.15997-42.77002,42.71002
				c0,0.29999,0.01001,0.60999,0.02002,0.91998l0.07001,2.04999L30.14996,59.25l7.87-21.47003
				c1.06006-2.51001,1.64001-2.51001,2.32001-2.51001c1.11005,0,1.45001,0.10004,2.62,2.64001l14.34003,34.32001l14.91998-34.58002
				c0.54004-1.42999,1.42999-2.39996,2.21002-2.39996c1.12,0,1.66998,0.52997,2.46002,2.34998l7.63995,21.35004h13.71002
				c2.06,0,2.06-2.11005,2.06-2.80005C100.29999,53.5,100.06,50.89001,99.57001,48.32001z M68.40997,36.12L57.35999,61.72998
				L46.70001,36.26001c-1.28003-2.78003-2.64001-5.09003-6.36005-5.09003c-2.82996,0-4.60999,1.47003-6.13,5.09998l-6.91998,18.88
				L18.45996,55.13C19.06,34.42999,36.33002,17.64996,57.10999,17.64996c6.72003,0,13.35999,1.72003,19.19,4.97003
				c3.71997,2.07001,7.07001,4.72998,9.96002,7.89996c6.09998,6.72003,9.60999,15.34003,9.91998,24.33002h-8.77002l-6.09998-17.06
				l-0.60999-1.70001c-0.69-1.60999-2.13-4.94-6.27002-4.94C71.84998,31.14996,69.59998,33.01001,68.40997,36.12z"/>
		</g>
	</g>
	<g>
		<g>
			<path class="st0" d="M97.06,65.81c-3.71002,0-6.96002,0.02002-9.39001,0.03998C84.16998,65.88,83.5,65.87,83.40997,65.85999
				c-0.87-0.09998-1.20996-0.62-2.13-2.66998l-0.5-1.10999l-6.19995-17.26001L59.15997,77.31
				c-0.42999,0.83002-0.64996,1.12-1.91998,1.12h-0.33002C55.94,78.44,55.54999,78.44,55.14001,77.58997L41.35999,44.40997
				l-7.13,18.66003c-1,2.41998-2.21002,2.69-3.21997,2.76001c-0.17004-0.01001-0.62-0.02002-1.37-0.02002l-14.73004-0.02002
				L15.5,68.32001c1.66998,6.98999,5.04999,13.45996,9.76996,18.70996c3.02002,3.42004,6.58002,6.30005,10.55005,8.56
				c6.41998,3.71002,13.77997,5.67004,21.28998,5.67004c19.91998,0,37.12-13.21002,41.83002-32.14001L98.95996,69
				c0.14001-0.88,0.15002-0.98004,0.15002-1.14001V65.81H97.06z M57.10999,97.15997c-6.65997,0-13.21997-1.70996-18.95001-4.95001
				c-3.82001-2.13995-7.22998-4.90997-10.13-8.22998C24.44,79.88,21.79999,75.14001,20.17999,69.89001l9.46002,0.01996
				c0.76996,0,1.02997,0.01001,1.19995,0.02002h0.23004c2.07996-0.12,5.07001-0.78998,6.96997-5.34003l3.47998-9.12l9.88,23.77002
				c1.54004,3.33002,4.34003,3.29999,5.55005,3.28998h0.28998c2.67999,0,4.34998-1.01001,5.59003-3.38L74.06,55.47998
				l2.89996,8.09003l0.58002,1.27997c0.92999,2.10004,2.08002,4.71002,5.38,5.09003
				c0.34998,0.03998,0.97003,0.03998,4.77002,0.01001l6.77997-0.04004C89.64001,85.97998,74.33997,97.15997,57.10999,97.15997z"/>
		</g>
	</g>
</g>
</svg>
