<svg xmlns="http://www.w3.org/2000/svg" xmlns:xlink="http://www.w3.org/1999/xlink" version="1.1" id="Layer_1" x="0px" y="0px" viewBox="0 0 300.7 298.8" style="enable-background:new 0 0 300.7 298.8;" xml:space="preserve">
<style type="text/css">
	.st0{fill:#78C5E1;}
	.st1{fill:#F46E5D;}
</style>
<path class="st0" d="M296.4,183.8v0.2c-16.3,65.6-76.4,114.7-146.8,114.7c-70.7,0-129.9-49-145.5-114.8c18.8,0,36.4,0.3,44.6,0.3  c3.9,0,4.6,0.2,4.8,0.2c6.1-0.3,13.9-2.3,19-14.7L92,118.6l43.4,104.7c3.9,8.3,10.4,8,14.3,8h0.4c7.6,0,10.9-2.9,13.8-8.4l49-103.4  l16.7,46.5l1,2.2c3.5,7.8,6.6,14.4,14,15.4c1.8,0.2,14,0.2,42.3,0.2C286.8,183.8,290.7,183.8,296.4,183.8L296.4,183.8z"/>
<path class="st1" d="M300.7,149.1c0,0.8,0,3.1,0,3.1l0,0l-45.3-0.7l-26-72.9c-2.3-5.5-5.9-13.9-16.1-13.9c-6.3,0-11.9,5.1-15.2,13.6  l-47.7,110.3L104.5,78.9C100,69.2,96.9,64.6,88,64.6c-6.1,0-10.6,2.2-15.4,13.8l-27.2,74.3H0.2c0-1.1,0-2.3,0-3.4  C0,66.6,67,0,149.6,0S300.7,66.5,300.7,149.1z"/>
</svg>